<svg width="220" height="220" viewBox="0 0 220 220" fill="none" xmlns="http://www.w3.org/2000/svg">
<path d="M101.502 8.52412C106.191 3.82059 113.809 3.82058 118.498 8.52411L122.561 12.5995C125.997 16.0461 131.175 17.076 135.668 15.2067L140.982 12.9964C147.114 10.4454 154.152 13.3606 156.684 19.5006L158.879 24.8207C160.734 29.3199 165.124 32.2528 169.99 32.2453L175.745 32.2366C182.387 32.2265 187.774 37.6132 187.763 44.2548L187.755 50.0096C187.747 54.8764 190.68 59.2658 195.179 61.1214L200.499 63.3156C206.639 65.8479 209.555 72.8859 207.004 79.0182L204.793 84.3315C202.924 88.8251 203.954 94.0026 207.4 97.4388L211.476 101.502C216.179 106.191 216.179 113.809 211.476 118.498L207.4 122.561C203.954 125.997 202.924 131.175 204.793 135.668L207.004 140.982C209.555 147.114 206.639 154.152 200.499 156.684L195.179 158.879C190.68 160.734 187.747 165.124 187.755 169.99L187.763 175.745C187.774 182.387 182.387 187.774 175.745 187.763L169.99 187.755C165.124 187.747 160.734 190.68 158.879 195.179L156.684 200.499C154.152 206.639 147.114 209.555 140.982 207.004L135.668 204.793C131.175 202.924 125.997 203.954 122.561 207.4L118.498 211.476C113.809 216.179 106.191 216.179 101.502 211.476L97.4388 207.4C94.0026 203.954 88.8251 202.924 84.3315 204.793L79.0182 207.004C72.8859 209.555 65.8479 206.639 63.3156 200.499L61.1214 195.179C59.2658 190.68 54.8764 187.747 50.0096 187.755L44.2548 187.763C37.6132 187.774 32.2265 182.387 32.2366 175.745L32.2453 169.99C32.2528 165.124 29.3199 160.734 24.8207 158.879L19.5006 156.684C13.3606 154.152 10.4454 147.114 12.9964 140.982L15.2067 135.668C17.076 131.175 16.0462 125.997 12.5995 122.561L8.52412 118.498C3.82059 113.809 3.82058 106.191 8.52411 101.502L12.5995 97.4388C16.0461 94.0026 17.076 88.8251 15.2067 84.3315L12.9964 79.0182C10.4454 72.8859 13.3606 65.8479 19.5006 63.3156L24.8207 61.1214C29.3199 59.2658 32.2528 54.8764 32.2453 50.0096L32.2366 44.2548C32.2265 37.6132 37.6132 32.2265 44.2548 32.2366L50.0096 32.2453C54.8764 32.2528 59.2658 29.3199 61.1214 24.8207L63.3156 19.5006C65.8479 13.3606 72.8859 10.4454 79.0182 12.9964L84.3315 15.2067C88.8251 17.076 94.0026 16.0462 97.4388 12.5995L101.502 8.52412Z" fill="#78F793"/>
<path d="M50 88.5556C50 88.5556 50.8158 103 66.1367 103C81.4576 103 82 88 82 88" stroke="black" stroke-width="3" stroke-linecap="round"/>
<path d="M90 88.5556C90 88.5556 90.8158 103 106.137 103C121.458 103 122 88 122 88" stroke="black" stroke-width="3" stroke-linecap="round"/>
<rect x="67" y="115" width="38" height="18" rx="9" fill="black"/>
<path d="M76 133C76 126.373 80.4772 121 86 121C91.5228 121 96 126.373 96 133H76Z" fill="#F8ACAC"/>
</svg>
