<svg width="32" height="32" viewBox="0 0 32 32" fill="none" xmlns="http://www.w3.org/2000/svg">
<path fill-rule="evenodd" clip-rule="evenodd" d="M18.7249 5.78198C19.7659 4.7394 21.4537 4.73812 22.4947 5.77912L25.8186 9.10303C26.8507 10.1352 26.8608 11.8067 25.8412 12.8527L23.629 15.1226L16.5083 8.00191L18.7249 5.78198ZM15.0946 9.41773L22.2324 16.5555L13.5322 25.4819C12.7789 26.2547 11.746 26.6906 10.6676 26.6905L6.99743 26.6904C5.86092 26.6903 4.95376 25.7434 5.00156 24.607L5.15913 20.861C5.20128 19.8588 5.61799 18.9087 6.32672 18.1989L15.0946 9.41773ZM18.1915 26.5931C18.1915 27.1456 18.639 27.5935 19.1911 27.5935H27.3531C27.9051 27.5935 28.3527 27.1456 28.3527 26.5931C28.3527 26.0406 27.9051 25.5927 27.3531 25.5927H19.1911C18.639 25.5927 18.1915 26.0406 18.1915 26.5931Z" fill="white"/>
</svg>
