<svg width="20" height="20" viewBox="0 0 20 20" fill="none" xmlns="http://www.w3.org/2000/svg">
<path d="M19 14.0879C19 16.7955 16.9218 18.9959 14.3647 18.9959V17.7689C16.2961 17.7689 17.8412 16.1329 17.8412 14.0879H19ZM2.00386 5.90798C2.00386 3.20041 4.08203 1 6.63917 1V2.22699C4.70779 2.22699 3.16269 3.86299 3.16269 5.90798H2.00386ZM7.41173 3.71575L3.86571 7.47853C1.3781 10.1125 1.3781 14.3906 3.86571 17.0245C6.35333 19.6585 10.3938 19.6585 12.8814 17.0245L18.3433 11.2249C18.7219 10.8405 18.7219 10.1943 18.3433 9.79346C18.2536 9.69823 18.1471 9.62269 18.0297 9.57114C17.9124 9.51959 17.7866 9.49306 17.6596 9.49306C17.5326 9.49306 17.4068 9.51959 17.2895 9.57114C17.1722 9.62269 17.0656 9.69823 16.9759 9.79346L13.5612 13.409L13.0127 12.8282L18.0652 7.47853C18.4438 7.07771 18.4438 6.43149 18.0652 6.03067C17.6867 5.62986 17.0686 5.62986 16.6823 6.03067L12.1938 10.816L11.6608 10.2188L16.9682 4.58282C17.3467 4.182 17.3467 3.53579 16.9682 3.13497C16.5896 2.73415 15.9793 2.73415 15.6008 3.13497L10.2779 8.77096L9.72938 8.19836L13.9784 3.71575C14.3647 3.31493 14.3647 2.66871 13.9784 2.26789C13.5921 1.86708 12.9895 1.86708 12.611 2.26789L6.72415 8.50102C7.18557 9.13037 7.41426 9.91636 7.36732 10.7115C7.32038 11.5067 7.00105 12.2564 6.46921 12.82L5.9207 12.2393C6.35472 11.7791 6.59851 11.1554 6.59851 10.5051C6.59851 9.8548 6.35472 9.23108 5.9207 8.77096L5.65031 8.48466L8.79459 5.15542C9.17314 4.7546 9.17314 4.10838 8.79459 3.70757C8.40832 3.31493 7.798 3.31493 7.41173 3.71575Z" fill="#2EC499"/>
</svg>
