<svg width="20" height="20" viewBox="0 0 20 20" fill="none" xmlns="http://www.w3.org/2000/svg">
<path d="M9.99951 1.0415C14.947 1.0415 18.9583 5.05211 18.9585 9.99951C18.9585 14.9471 14.9471 18.9585 9.99951 18.9585C8.42716 18.9584 6.94737 18.5522 5.66162 17.8394C5.58306 17.7959 5.50616 17.7937 5.45166 17.813L3.3501 18.5562C2.06214 19.0113 0.821843 17.7709 1.27686 16.4829L2.05029 14.2935C2.06881 14.241 2.06717 14.168 2.02783 14.0913C1.39694 12.8643 1.0415 11.4721 1.0415 9.99951C1.04168 5.05222 5.05222 1.04168 9.99951 1.0415ZM5.87451 8.99951C5.29925 8.99956 4.83252 9.46623 4.83252 10.0415C4.83259 10.6167 5.29929 11.0835 5.87451 11.0835C6.44977 11.0835 6.91644 10.6167 6.9165 10.0415C6.9165 9.46621 6.44981 8.99951 5.87451 8.99951ZM10.0415 8.99951C9.46621 8.99951 8.99951 9.46621 8.99951 10.0415C8.9996 10.6167 9.46626 11.0835 10.0415 11.0835C10.6166 11.0833 11.0824 10.6166 11.0825 10.0415C11.0825 9.46632 10.6167 8.99969 10.0415 8.99951ZM14.2085 8.99951C13.6332 8.99951 13.1665 9.46623 13.1665 10.0415C13.1665 10.6168 13.6332 11.0835 14.2085 11.0835C14.7836 11.0833 15.2495 10.6167 15.2495 10.0415C15.2495 9.46634 14.7836 8.99969 14.2085 8.99951Z" fill="#607DFF"/>
</svg>
